<svg xmlns="http://www.w3.org/2000/svg" viewBox="0 0 24 24" id="Multiple-Neutral-2_1--Streamline-Ultimate" height="24" width="24">
  <desc>
    Multiple Neutral 2_1 Streamline Icon: https://streamlinehq.com
  </desc>
  <path d="M14.694 10.25a3.25 3.25 0 1 0 6.5 0 3.25 3.25 0 1 0 -6.5 0" fill="#dff9ff" stroke-width="1"></path>
  <path d="M17.944 9.057a3.239 3.239 0 0 1 3.068 2.221 3.214 3.214 0 0 0 0.182 -1.028 3.25 3.25 0 1 0 -6.5 0 3.214 3.214 0 0 0 0.182 1.028 3.24 3.24 0 0 1 3.068 -2.221" fill="#ffffff" stroke-width="1"></path>
  <path d="M12.371 20.535a5.574 5.574 0 0 1 11.147 0Z" fill="#dff9ff" stroke-width="1"></path>
  <path d="M17.944 16.736a5.572 5.572 0 0 1 5.28 3.8h0.294a5.574 5.574 0 0 0 -11.147 0h0.294a5.571 5.571 0 0 1 5.279 -3.8" fill="#ffffff" stroke-width="1"></path>
  <path d="M3.25 7.75a4.25 4.25 0 1 0 8.5 0 4.25 4.25 0 1 0 -8.5 0" fill="#dff9ff" stroke-width="1"></path>
  <path d="M7.5 6.19a4.236 4.236 0 0 1 4.012 2.91 4.2 4.2 0 0 0 0.238 -1.35 4.25 4.25 0 0 0 -8.5 0 4.2 4.2 0 0 0 0.238 1.35A4.236 4.236 0 0 1 7.5 6.19" fill="#dff9ff" stroke-width="1"></path>
  <path d="M0.5 20.5a7 7 0 0 1 14 0Z" fill="#9feaff" stroke-width="1"></path>
  <path d="M7.5 15.729a7 7 0 0 1 6.631 4.771h0.369a7 7 0 0 0 -14 0h0.369A7 7 0 0 1 7.5 15.729" fill="#dff9ff" stroke-width="1"></path>
  <path d="M3.285 7.785a4.25 4.25 0 1 0 8.5 0 4.25 4.25 0 1 0 -8.5 0" fill="none" stroke="#00303e" stroke-linecap="round" stroke-linejoin="round" stroke-width="1"></path>
  <path d="M0.535 20.535a7 7 0 0 1 14 0Z" fill="none" stroke="#00303e" stroke-linecap="round" stroke-linejoin="round" stroke-width="1"></path>
  <path d="M16.5 20.5h7a5.5 5.5 0 0 0 -8.027 -4.885" fill="none" stroke="#00303e" stroke-linecap="round" stroke-linejoin="round" stroke-width="1"></path>
  <path d="M14.694 10.25a3.25 3.25 0 1 0 6.5 0 3.25 3.25 0 1 0 -6.5 0" fill="none" stroke="#00303e" stroke-linecap="round" stroke-linejoin="round" stroke-width="1"></path>
</svg>