<svg xmlns="http://www.w3.org/2000/svg" viewBox="0 0 24 24" id="House-Chimney--Streamline-Ultimate" height="24" width="24">
  <desc>
    House Chimney Streamline Icon: https://streamlinehq.com
  </desc>
  <path d="M19.5 8.4V3.5A0.5 0.5 0 0 0 19 3h-2a0.5 0.5 0 0 0 -0.5 0.5v2.14l-4.162 -3.829a0.5 0.5 0 0 0 -0.678 0l-11 10.321A0.5 0.5 0 0 0 1 13h2.5v9.5a1 1 0 0 0 1 1h15a1 1 0 0 0 1 -1V13H23a0.5 0.5 0 0 0 0.339 -0.868Z" fill="#9feaff" stroke-width="1"></path>
  <path d="M1 13h2.246l8.365 -7.849a0.575 0.575 0 0 1 0.776 0l4.768 4.387 3.437 3.162 0.309 0.3H23a0.5 0.5 0 0 0 0.339 -0.868L19.5 8.4V3.5A0.5 0.5 0 0 0 19 3h-2a0.5 0.5 0 0 0 -0.5 0.5v2.14l-4.162 -3.828a0.5 0.5 0 0 0 -0.678 0l-11 10.32A0.5 0.5 0 0 0 1 13" fill="#dff9ff" stroke-width="1"></path>
  <path d="M19.5 8.4V3.5A0.5 0.5 0 0 0 19 3h-2a0.5 0.5 0 0 0 -0.5 0.5v2.14l-4.162 -3.829a0.5 0.5 0 0 0 -0.678 0l-11 10.321A0.5 0.5 0 0 0 1 13h2.5v9.5a1 1 0 0 0 1 1h15a1 1 0 0 0 1 -1V13H23a0.5 0.5 0 0 0 0.339 -0.868Z" fill="none" stroke="#00303e" stroke-linecap="round" stroke-linejoin="round" stroke-width="1"></path>
</svg>