<svg xmlns="http://www.w3.org/2000/svg" viewBox="0 0 24 24" id="Farmer&apos;S-Market-Kiosk-1--Streamline-Ultimate" height="24" width="24">
  <desc>
    Farmers Market Kiosk 1 Streamline Icon: https://streamlinehq.com
  </desc>
  <title>farmer&amp;apos;s-market-kiosk-1</title>
  <path d="M15 13a1.5 1.5 0 1 0 3 0 1.5 1.5 0 1 0 -3 0" stroke="#00303e" stroke-linecap="round" stroke-linejoin="round" fill="#9feaff" stroke-width="1"></path>
  <path d="m2.5 16.5 0 -8.162" fill="none" stroke="#00303e" stroke-linecap="round" stroke-linejoin="round" stroke-width="1"></path>
  <path d="m21.5 8.338 0 8.162" fill="none" stroke="#00303e" stroke-linecap="round" stroke-linejoin="round" stroke-width="1"></path>
  <path d="m12 4.5 0 -4 -5.5 0 -1 4z" fill="#dff9ff" stroke="#00303e" stroke-linecap="round" stroke-linejoin="round" stroke-width="1"></path>
  <path d="m23.5 4.5 -1.724 -3.447A1 1 0 0 0 20.882 0.5H17.5l1 4Z" fill="#dff9ff" stroke="#00303e" stroke-linecap="round" stroke-linejoin="round" stroke-width="1"></path>
  <path d="M6.5 0.5H3.118a1 1 0 0 0 -0.894 0.553L0.5 4.5h5Z" fill="#dff9ff" stroke="#00303e" stroke-linecap="round" stroke-linejoin="round" stroke-width="1"></path>
  <path d="m18.5 4.5 -1 -4 -5.5 0 0 4z" fill="#dff9ff" stroke="#00303e" stroke-linecap="round" stroke-linejoin="round" stroke-width="1"></path>
  <path d="M18.5 4.5v3a2.861 2.861 0 0 0 5 -2v-1Z" fill="#9feaff" stroke="#00303e" stroke-linecap="round" stroke-linejoin="round" stroke-width="1"></path>
  <path d="M0.5 4.5v1a2.863 2.863 0 0 0 5 2v-3Z" fill="#9feaff" stroke="#00303e" stroke-linecap="round" stroke-linejoin="round" stroke-width="1"></path>
  <path d="M12 4.5v3.64a4.048 4.048 0 0 0 6.5 -0.64v-3Z" fill="#9feaff" stroke="#00303e" stroke-linecap="round" stroke-linejoin="round" stroke-width="1"></path>
  <path d="M5.5 4.5v3a4.048 4.048 0 0 0 6.5 0.64V4.5Z" fill="#9feaff" stroke="#00303e" stroke-linecap="round" stroke-linejoin="round" stroke-width="1"></path>
  <path d="M1.5 16.5h21s1 0 1 1v3s0 1 -1 1h-21s-1 0 -1 -1v-3s0 -1 1 -1" fill="#9feaff" stroke-width="1"></path>
  <path d="M22.5 16.5h-21a1 1 0 0 0 -1 1v2a1 1 0 0 1 1 -1h21a1 1 0 0 1 1 1v-2a1 1 0 0 0 -1 -1" fill="#9feaff" stroke-width="1"></path>
  <path d="M1.5 16.5h21s1 0 1 1v3s0 1 -1 1h-21s-1 0 -1 -1v-3s0 -1 1 -1" fill="none" stroke="#00303e" stroke-linecap="round" stroke-linejoin="round" stroke-width="1"></path>
  <path d="m2.5 21.5 0 2" fill="none" stroke="#00303e" stroke-linecap="round" stroke-linejoin="round" stroke-width="1"></path>
  <path d="m21.5 21.5 0 2" fill="none" stroke="#00303e" stroke-linecap="round" stroke-linejoin="round" stroke-width="1"></path>
  <path d="M4.5 15a1.5 1.5 0 1 0 3 0 1.5 1.5 0 1 0 -3 0" stroke="#00303e" stroke-linecap="round" stroke-linejoin="round" fill="#9feaff" stroke-width="1"></path>
  <path d="M7.5 15a1.5 1.5 0 1 0 3 0 1.5 1.5 0 1 0 -3 0" stroke="#00303e" stroke-linecap="round" stroke-linejoin="round" fill="#9feaff" stroke-width="1"></path>
  <path d="M13.5 15a1.5 1.5 0 1 0 3 0 1.5 1.5 0 1 0 -3 0" stroke="#00303e" stroke-linecap="round" stroke-linejoin="round" fill="#9feaff" stroke-width="1"></path>
  <path d="M16.5 15a1.5 1.5 0 1 0 3 0 1.5 1.5 0 1 0 -3 0" stroke="#00303e" stroke-linecap="round" stroke-linejoin="round" fill="#9feaff" stroke-width="1"></path>
</svg>