<svg xmlns="http://www.w3.org/2000/svg" viewBox="0 0 24 24" id="Navigation-Menu-Horizontal-1--Streamline-Ultimate" height="24" width="24">
  <desc>
    Navigation Menu Horizontal 1 Streamline Icon: https://streamlinehq.com
  </desc>
  <path d="M0.5 12a11.5 11.5 0 1 0 23 0 11.5 11.5 0 1 0 -23 0" fill="#9feaff" stroke-width="1"></path>
  <path d="M12 23.5a11.5 11.5 0 0 1 0 -23Z" fill="#dff9ff" stroke-width="1"></path>
  <path d="M0.5 12a11.5 11.5 0 1 0 23 0 11.5 11.5 0 1 0 -23 0" stroke="#00303e" stroke-linecap="round" stroke-linejoin="round" fill="none" stroke-width="1"></path>
  <path d="M5.75 12a1.25 1.25 0 1 0 2.5 0 1.25 1.25 0 1 0 -2.5 0" fill="#dff9ff" stroke="#00303e" stroke-linecap="round" stroke-linejoin="round" stroke-width="1"></path>
  <path d="M10.75 12a1.25 1.25 0 1 0 2.5 0 1.25 1.25 0 1 0 -2.5 0" fill="#dff9ff" stroke="#00303e" stroke-linecap="round" stroke-linejoin="round" stroke-width="1"></path>
  <path d="M15.75 12a1.25 1.25 0 1 0 2.5 0 1.25 1.25 0 1 0 -2.5 0" fill="#dff9ff" stroke="#00303e" stroke-linecap="round" stroke-linejoin="round" stroke-width="1"></path>
</svg>